# xmcd
#
# Track frame offsets:
#	150
#	17747
#	34122
#	53552
#	68552
#	86215
#	105542
#	123395
#	139572
#	160017
#	179692
#
# Disc length: 2669 seconds
#
# Revision: 1
# Processed by: cddbd v1.4PL0 Copyright (c) Steve Scherf et al.
# Submitted via: audiograbber 1.81.02
#
DISCID=8a0a6b0b
DTITLE=David Gogo - Change Of Pace
DYEAR=1999
DGENRE=Electricblues
TTITLE0=Sad And Lonely
TTITLE1=(It's All Over Now) Baby Blue
TTITLE2=Sad And Beautiful
TTITLE3=By Your Side
TTITLE4=Runaground
TTITLE5=Face in The Mirror
TTITLE6=Drag My Blues
TTITLE7=Change Of Pace
TTITLE8=Mr. Slow
TTITLE9=For You
TTITLE10=Butterfly Tattoo
EXTD=
EXTT0=
EXTT1=
EXTT2=
EXTT3=
EXTT4=
EXTT5=
EXTT6=
EXTT7=
EXTT8=
EXTT9=
EXTT10=
PLAYORDER=
